<svg width="33" height="37" viewBox="0 0 33 37" fill="none" xmlns="http://www.w3.org/2000/svg">
<path fill-rule="evenodd" clip-rule="evenodd" d="M16.6388 14.5128C19.6443 14.5128 22.0806 12.0764 22.0806 9.07103C22.0806 6.06565 19.6443 3.62929 16.6388 3.62929C13.6334 3.62929 11.1971 6.06565 11.1971 9.07103C11.1971 12.0764 13.6334 14.5128 16.6388 14.5128ZM16.6388 18.1406C21.6478 18.1406 25.7084 14.08 25.7084 9.07103C25.7084 4.06205 21.6478 0.00146484 16.6388 0.00146484C11.6299 0.00146484 7.56927 4.06205 7.56927 9.07103C7.56927 14.08 11.6299 18.1406 16.6388 18.1406Z" fill="white"/>
<path fill-rule="evenodd" clip-rule="evenodd" d="M11.2052 25.3925C7.19801 25.3925 3.94954 28.641 3.94954 32.6481V34.462C3.94954 35.4639 3.13742 36.276 2.13563 36.276C1.13384 36.276 0.321716 35.4639 0.321716 34.462V32.6481C0.321716 26.6374 5.19441 21.7646 11.2052 21.7646H22.0887C28.0994 21.7646 32.9722 26.6374 32.9722 32.6481V34.462C32.9722 35.4639 32.1601 36.276 31.1582 36.276C30.1564 36.276 29.3443 35.4639 29.3443 34.462V32.6481C29.3443 28.641 26.0958 25.3925 22.0887 25.3925H11.2052Z" fill="white"/>
</svg>
